Genre:Action | Horror
Language:English  http://www.imdb.com/title/tt1453245/
Source:1080p BluRay x264-TiTANS


Format : Matroska
File size : 1.68 GiB
Duration : 1h 33mn
Overall bit rate : 2 583 Kbps


Video
Format settings, CABAC : Yes
Format settings, ReFrames : 4 frames
Format settings, GOP : M=1, N=16
Codec ID : V_MPEG4/ISO/AVC
Duration : 1h 33mn
Bit rate : 2 200 Kbps
Width : 1 280 pixels
Height : 544 pixels
Display aspect ratio : 2.35:1
Frame rate mode : Variable
Frame rate : 25.000 fps
Color space : YUV
Chroma subsampling : 4:2:0
Bit depth : 8 bits
Scan type : Progressive
Bits/(Pixel*Frame) : 0.126
Stream size : 1.40 GiB (83%)
Writing library : x264


Audio
ID : 2
Format : AC-3
Format/Info : Audio Coding 3
Mode extension : CM (complete main)
Codec ID : A_AC3
Duration : 1h 33mn
Bit rate mode : Constant
Bit rate : 384 Kbps
Channel(s) : 6 channels
Channel positions : Front: L C R, Side: L R, LFE
Sampling rate : 48.0 KHz
Bit depth : 16 bits
Video delay : -1mn 5s
Stream size : 255 MiB (15%)
Language : English



Plot:
As the world succumbs to a zombie apocalypse, Cole a hardened mercenary, is chasing the one person who can provide a cure
 
http://shareimage.org/images/v10y1wzacfo56j2s9wfw.png 
http://shareimage.org/images/5117hyyl0n0owm3uhn9.png 
http://shareimage.org/images/213fhn8yp249f1zrn9fx.png 
http://shareimage.org/images/m8aedpz0f6fx1tm91nf8.png